<svg width="27" height="34" viewBox="0 0 27 34" fill="none" xmlns="http://www.w3.org/2000/svg">
<path d="M0 17C0 17.4509 0.17779 17.8833 0.494258 18.2021C0.810725 18.5209 1.23995 18.7 1.6875 18.7H14.4956L10.6144 22.593C10.4562 22.751 10.3307 22.9391 10.245 23.1462C10.1593 23.3534 10.1152 23.5756 10.1152 23.8C10.1152 24.0244 10.1593 24.2466 10.245 24.4538C10.3307 24.6609 10.4562 24.849 10.6144 25.007C10.7712 25.1663 10.9579 25.2928 11.1635 25.3791C11.3692 25.4654 11.5897 25.5099 11.8125 25.5099C12.0353 25.5099 12.2558 25.4654 12.4615 25.3791C12.6671 25.2928 12.8538 25.1663 13.0106 25.007L19.7606 18.207C19.9143 18.0453 20.0347 17.8547 20.115 17.646C20.2838 17.2321 20.2838 16.7679 20.115 16.354C20.0347 16.1453 19.9143 15.9547 19.7606 15.793L13.0106 8.993C12.8533 8.83449 12.6665 8.70876 12.4609 8.62298C12.2553 8.5372 12.035 8.49304 11.8125 8.49304C11.59 8.49304 11.3697 8.5372 11.1641 8.62298C10.9585 8.70876 10.7717 8.83449 10.6144 8.993C10.457 9.15151 10.3322 9.33968 10.2471 9.54678C10.1619 9.75387 10.1181 9.97584 10.1181 10.2C10.1181 10.4242 10.1619 10.6461 10.2471 10.8532C10.3322 11.0603 10.457 11.2485 10.6144 11.407L14.4956 15.3H1.6875C1.23995 15.3 0.810725 15.4791 0.494258 15.7979C0.17779 16.1167 0 16.5491 0 17ZM21.9375 0H5.0625C3.71984 0 2.43217 0.53732 1.48277 1.49376C0.533369 2.45019 0 3.7474 0 5.1V10.2C0 10.6509 0.17779 11.0833 0.494258 11.4021C0.810725 11.7209 1.23995 11.9 1.6875 11.9C2.13505 11.9 2.56427 11.7209 2.88074 11.4021C3.19721 11.0833 3.375 10.6509 3.375 10.2V5.1C3.375 4.64913 3.55279 4.21673 3.86926 3.89792C4.18573 3.57911 4.61495 3.4 5.0625 3.4H21.9375C22.3851 3.4 22.8143 3.57911 23.1307 3.89792C23.4472 4.21673 23.625 4.64913 23.625 5.1V28.9C23.625 29.3509 23.4472 29.7833 23.1307 30.1021C22.8143 30.4209 22.3851 30.6 21.9375 30.6H5.0625C4.61495 30.6 4.18573 30.4209 3.86926 30.1021C3.55279 29.7833 3.375 29.3509 3.375 28.9V23.8C3.375 23.3491 3.19721 22.9167 2.88074 22.5979C2.56427 22.2791 2.13505 22.1 1.6875 22.1C1.23995 22.1 0.810725 22.2791 0.494258 22.5979C0.17779 22.9167 0 23.3491 0 23.8V28.9C0 30.2526 0.533369 31.5498 1.48277 32.5062C2.43217 33.4627 3.71984 34 5.0625 34H21.9375C23.2802 34 24.5678 33.4627 25.5172 32.5062C26.4666 31.5498 27 30.2526 27 28.9V5.1C27 3.7474 26.4666 2.45019 25.5172 1.49376C24.5678 0.53732 23.2802 0 21.9375 0Z" fill="white"/>
</svg>
